<svg xmlns="http://www.w3.org/2000/svg" viewBox="80 100 830 800">
  <path d="M222.359,709.472c-46.725,-35.349 -81.287,-78.548 -97.359,-105.033l0.273,-0.374c28.33,-37.58 55.998,-73.02 88.133,-107.131c-37.364,-54.597 -45.968,-128.816 -20.445,-207.367c0.747,-2.299 1.514,-4.583 2.3,-6.852c19.18,-55.362 49.584,-101.581 69.806,-125.05l0.44,0.144c44.495,15.331 86.75,30.693 129.123,50.714c40.378,-52.407 108.307,-83.524 190.9,-83.524c2.417,0 4.826,0.024 7.227,0.07c58.579,1.134 111.931,15.767 140.501,27.747l-0.001,0.463c-0.83,47.055 -2.384,91.989 -8.331,138.474c62.32,22.208 112.905,77.195 138.428,155.746c0.747,2.299 1.469,4.598 2.167,6.895c17.024,56.063 19.593,111.326 17.028,142.199l-0.441,0.142c-45.008,13.751 -88.224,26.159 -134.271,34.868c-1.863,66.132 -38.528,131.234 -105.347,179.781c-1.955,1.421 -3.919,2.818 -5.888,4.191c-48.058,33.515 -99.822,53.035 -129.977,60.137l-0.271,-0.375c-26.986,-38.556 -52.142,-75.822 -74.653,-116.925c-63.471,18.664 -136.716,3.911 -203.535,-44.635c-1.955,-1.421 -3.891,-2.856 -5.806,-4.305Zm20.406,-178.991c-16.553,25.978 -35,59.302 -39.971,79.487c5.791,14.879 22.659,38.993 53.703,61.548c7.471,5.428 15.23,10.142 23.159,14.089c48.901,24.339 104.244,19.464 138.209,-27.284c19.382,-26.677 19.302,-55.001 8.216,-91.981c-33.225,15.929 -67.188,20.237 -107.492,7.142c-29.741,-9.664 -55.143,-24.358 -75.824,-43Zm129.033,-283.669c-29.821,-7.715 -67.215,-14.962 -87.949,-13.451c-12.362,10.105 -30.082,33.599 -41.94,70.094c-2.854,8.783 -4.939,17.619 -6.242,26.379c-8.036,54.028 13.702,105.157 68.658,123.013c31.36,10.19 58.274,1.361 90.018,-20.61c-25.417,-26.677 -40.009,-57.646 -40.009,-100.024c0,-31.272 6.126,-59.971 17.464,-85.4Zm309.658,35.059c-1.877,-30.746 -6.541,-68.548 -14.385,-87.801c-13.43,-8.634 -41.251,-18.227 -79.623,-18.227c-9.235,0 -18.283,0.747 -27.017,2.215c-53.867,9.053 -95.776,45.527 -95.776,103.31c0,32.974 16.713,55.842 47.418,79.243c17.517,-32.417 42.461,-55.865 82.765,-68.96c29.741,-9.664 58.929,-12.706 86.617,-9.781Zm62.346,305.336c28.661,-11.287 63.172,-27.404 79.058,-40.812c4.061,-15.441 4.588,-44.864 -7.27,-81.359c-2.854,-8.783 -6.36,-17.158 -10.455,-25.01c-25.256,-48.433 -72.895,-77.02 -127.85,-59.164c-31.36,10.19 -47.945,33.152 -60.712,69.585c36.243,6.642 66.252,23.12 91.161,57.404c18.381,25.299 30.294,52.118 36.068,79.356Zm-271.126,153.649c19.591,23.771 45.584,51.612 63.245,62.577c15.94,-0.909 44.086,-9.501 75.13,-32.056c7.471,-5.428 14.352,-11.351 20.555,-17.672c38.259,-38.986 50.724,-93.128 16.76,-139.875c-19.382,-26.677 -46.345,-35.354 -84.94,-36.237c4.883,36.522 -1.516,70.153 -26.425,104.438c-18.381,25.299 -40.206,44.917 -64.326,58.825Z" fill="#00718d"/>
  <path d="M225.841,484.037c-41.544,-52.245 -52.611,-127.891 -30.579,-201.32c19.18,-55.362 49.584,-101.581 69.806,-125.05l0.44,0.144c50.13,17.272 97.417,34.585 145.232,58.554c36.85,-55.656 105.374,-89.556 182.018,-91.294c58.579,1.134 111.931,15.767 140.501,27.747l-0.001,0.463c-0.936,53.014 -2.789,103.337 -10.809,156.218c64.319,17.848 117.735,72.542 143.073,144.897c17.024,56.063 19.593,111.326 17.028,142.199l-0.441,0.142c-50.709,15.492 -99.141,29.281 -151.912,37.994c2.901,66.686 -32.609,134.39 -93.594,180.846c-48.058,33.515 -99.822,53.035 -129.977,60.137l-0.271,-0.375c-30.404,-43.439 -58.484,-85.24 -83.078,-132.736c-62.526,23.366 -137.889,10.515 -200.917,-33.129c-46.725,-35.349 -81.287,-78.548 -97.359,-105.033l0.273,-0.374c31.918,-42.339 62.996,-81.962 100.567,-120.03Zm233.485,239.968c19.318,25.527 54.485,65.703 76.596,79.43c15.94,-0.909 44.086,-9.501 75.13,-32.056c7.471,-5.428 14.352,-11.351 20.555,-17.672c57.33,-46.731 71.399,-112.002 27.989,-171.75c-32.068,-44.137 -71.453,-49.139 -144.707,-41.943c16.951,51.99 19.146,98.77 -11.673,141.188c-12.713,17.497 -27.548,31.721 -43.892,42.803Zm36.017,-234.032c0.783,-0.091 1.57,-0.183 2.36,-0.276c4.882,-0.562 9.716,-1.09 14.498,-1.573c0.155,-0.773 0.311,-1.549 0.467,-2.329c0.974,-4.817 1.966,-9.577 2.984,-14.275c-0.687,-0.387 -1.377,-0.774 -2.071,-1.164c-4.28,-2.414 -8.501,-4.829 -12.654,-7.249c-0.58,0.534 -1.162,1.071 -1.747,1.61c-3.619,3.325 -7.219,6.592 -10.805,9.795c0.329,0.717 0.659,1.436 0.992,2.159c2.044,4.469 4.039,8.903 5.977,13.303Zm-48.52,18.592c-44.207,32.187 -88.019,48.731 -137.885,32.528c-20.569,-6.683 -38.681,-16.398 -54.271,-28.517c-18.308,26.261 -45.65,72.122 -51.873,97.392c5.791,14.879 22.659,38.993 53.703,61.548c7.471,5.428 15.23,10.142 23.159,14.089c62.16,40.084 128.584,33.293 171.993,-26.454c32.068,-44.137 24.654,-83.141 -4.826,-150.585Zm276.826,86.132c30.247,-10.485 79.324,-31.515 99.212,-48.301c4.061,-15.441 4.588,-44.864 -7.27,-81.359c-2.854,-8.783 -6.36,-17.158 -10.455,-25.01c-26.728,-68.965 -84.457,-102.515 -154.695,-79.693c-51.886,16.859 -68.814,52.771 -84.607,124.663c54.683,-0.056 99.852,12.312 130.671,54.731c12.713,17.497 21.655,36.002 27.144,54.97Zm-41.298,-291.344c-0.625,-32.007 -5.46,-85.18 -15.279,-109.282c-13.43,-8.634 -41.251,-18.227 -79.623,-18.227c-9.235,0 -18.283,0.747 -27.017,2.215c-73.849,4.108 -123.596,48.645 -123.596,122.497c0,54.557 28.924,81.753 92.416,118.989c16.845,-52.024 42.566,-91.16 92.432,-107.363c20.569,-6.683 40.932,-9.47 60.668,-8.829Zm-289.847,-50.753c-30.633,-9.297 -82.699,-21.129 -108.655,-19.239c-12.362,10.105 -30.082,33.599 -41.94,70.094c-2.854,8.783 -4.939,17.619 -6.242,26.379c-18.913,71.504 8.071,132.579 78.308,155.4c51.886,16.859 86.69,-2.245 141.724,-51.123c-44.273,-32.097 -73.545,-68.652 -73.545,-121.085c0,-21.628 3.642,-41.855 10.35,-60.427Z" fill="#002731"/>
</svg>
